<?xml version="1.0" encoding="UTF-8" standalone="no"?>
<svg width="520px" height="108px" viewBox="0 0 520 108" version="1.1" xmlns="http://www.w3.org/2000/svg" xmlns:xlink="http://www.w3.org/1999/xlink" xmlns:sketch="http://www.bohemiancoding.com/sketch/ns">
    <!-- Generator: Sketch 3.3.3 (12072) - http://www.bohemiancoding.com/sketch -->
    <title>Default logo</title>
    <desc>Created with Sketch.</desc>
    <defs></defs>
    <g id="Page-1" stroke="none" stroke-width="1" fill="none" fill-rule="evenodd" sketch:type="MSPage">
        <g id="Default-logo" sketch:type="MSArtboardGroup">
            <g id="logo" sketch:type="MSLayerGroup">
                <path d="M74.007,8.305 L68.889,13.424 C74.681,15.788 80.178,18.385 84.18,20.415 C83.217,32.769 78.661,59.241 74.009,73.197 C71.044,82.094 56.159,93.381 45.583,99.701 C41.266,97.122 36.239,93.709 31.59,89.976 L68.235,53.332 C70.531,51.036 71.795,47.982 71.795,44.736 C71.795,41.49 70.531,38.437 68.235,36.141 C65.939,33.845 62.885,32.581 59.639,32.581 C56.393,32.581 53.34,33.845 51.044,36.141 L43.112,44.073 L48.031,48.991 L55.962,41.059 C57.928,39.092 61.354,39.092 63.316,41.059 C64.3,42.041 64.84,43.347 64.84,44.736 C64.84,46.125 64.3,47.431 63.316,48.413 L21.566,90.163 C23.258,91.76 25.033,93.293 26.824,94.742 C36.032,102.194 45.582,107.407 45.582,107.407 C45.582,107.407 75.004,91.359 80.353,75.311 C85.702,59.263 91.052,27.167 91.052,16.468 C91.052,16.468 83.523,12.363 74.007,8.305" id="Fill-1" fill="#666666" sketch:type="MSShapeGroup"></path>
                <path d="M35.18,52.005 C33.217,53.97 29.793,53.973 27.825,52.005 C26.843,51.022 26.302,49.718 26.302,48.328 C26.302,46.939 26.843,45.634 27.825,44.652 L66.991,5.487 C64.558,4.575 62.087,3.725 59.653,2.989 C54.568,1.452 49.646,0.42 45.582,0.42 C29.534,0.42 0.113,16.469 0.113,16.469 C0.113,27.167 5.462,59.263 10.812,75.311 C11.919,78.633 14.068,81.951 16.765,85.13 L21.52,80.375 C19.469,77.908 17.915,75.474 17.155,73.197 C12.503,59.24 7.947,32.767 6.985,20.414 C16.73,15.464 35.324,7.107 45.582,7.107 C48.055,7.107 51.023,7.603 54.229,8.412 L22.908,39.733 L22.909,39.734 C20.613,42.03 19.348,45.082 19.348,48.328 C19.348,51.575 20.613,54.627 22.908,56.923 C27.65,61.661 35.359,61.664 40.099,56.923 L48.031,48.991 L43.112,44.073 L35.18,52.005" id="Fill-2" fill="#F05322" sketch:type="MSShapeGroup"></path>
                <path d="M141.874,36.158 C141.107,35.161 140.024,34.327 138.625,33.656 C137.225,32.986 135.817,32.65 134.399,32.65 C133.555,32.65 132.711,32.756 131.868,32.966 C131.025,33.178 130.259,33.504 129.568,33.944 C128.878,34.385 128.312,34.96 127.872,35.669 C127.431,36.379 127.211,37.232 127.211,38.228 C127.211,39.148 127.402,39.934 127.785,40.586 C128.168,41.238 128.696,41.793 129.367,42.253 C130.037,42.713 130.852,43.116 131.811,43.461 C132.769,43.806 133.823,44.151 134.974,44.496 C136.277,44.918 137.628,45.397 139.028,45.934 C140.427,46.471 141.711,47.18 142.881,48.061 C144.05,48.944 145.009,50.055 145.756,51.397 C146.504,52.739 146.877,54.407 146.877,56.4 C146.877,58.585 146.475,60.492 145.67,62.121 C144.865,63.751 143.791,65.102 142.449,66.175 C141.107,67.249 139.535,68.054 137.734,68.591 C135.931,69.127 134.034,69.395 132.041,69.395 C129.396,69.395 126.808,68.906 124.277,67.928 C121.748,66.951 119.678,65.505 118.067,63.588 L123.243,58.757 C124.239,60.137 125.572,61.229 127.24,62.035 C128.907,62.84 130.546,63.242 132.156,63.242 C132.999,63.242 133.862,63.138 134.744,62.926 C135.625,62.716 136.42,62.361 137.13,61.862 C137.839,61.364 138.414,60.741 138.855,59.993 C139.296,59.246 139.517,58.317 139.517,57.205 C139.517,56.132 139.267,55.241 138.769,54.531 C138.27,53.822 137.599,53.208 136.757,52.691 C135.913,52.173 134.916,51.723 133.766,51.339 C132.616,50.956 131.408,50.554 130.143,50.132 C128.916,49.749 127.69,49.289 126.463,48.751 C125.236,48.215 124.134,47.506 123.157,46.624 C122.179,45.743 121.383,44.659 120.77,43.375 C120.157,42.091 119.85,40.491 119.85,38.573 C119.85,36.503 120.281,34.72 121.144,33.225 C122.007,31.73 123.136,30.493 124.536,29.516 C125.936,28.538 127.527,27.81 129.309,27.331 C131.092,26.852 132.904,26.612 134.744,26.612 C136.814,26.612 138.913,26.977 141.041,27.704 C143.168,28.433 145.017,29.526 146.59,30.982 L141.874,36.158" id="Fill-3" fill="#F05322" sketch:type="MSShapeGroup"></path>
                <path d="M152.455,31.385 C152.455,30.273 152.866,29.305 153.691,28.481 C154.515,27.657 155.56,27.245 156.825,27.245 C158.09,27.245 159.154,27.638 160.017,28.423 C160.879,29.21 161.311,30.197 161.311,31.385 C161.311,32.574 160.879,33.561 160.017,34.346 C159.154,35.133 158.09,35.525 156.825,35.525 C155.56,35.525 154.515,35.114 153.691,34.289 C152.866,33.465 152.455,32.497 152.455,31.385 L152.455,31.385 Z M153.432,40.758 L160.332,40.758 L160.332,68.36 L153.432,68.36 L153.432,40.758 Z" id="Fill-4" fill="#F05322" sketch:type="MSShapeGroup"></path>
                <path d="M196.273,40.758 L196.273,65.887 C196.273,68.379 195.966,70.632 195.353,72.644 C194.739,74.657 193.79,76.362 192.507,77.763 C191.221,79.161 189.602,80.244 187.647,81.012 C185.692,81.778 183.372,82.161 180.689,82.161 C179.577,82.161 178.398,82.065 177.152,81.874 C175.906,81.681 174.68,81.394 173.472,81.012 C172.264,80.628 171.105,80.148 169.993,79.574 C168.881,78.999 167.884,78.346 167.003,77.619 L170.97,72.27 C172.312,73.536 173.826,74.504 175.513,75.175 C177.2,75.845 178.906,76.181 180.632,76.181 C182.28,76.181 183.67,75.94 184.801,75.46 C185.931,74.977 186.832,74.314 187.503,73.469 C188.173,72.622 188.654,71.621 188.941,70.468 C189.229,69.312 189.372,68.043 189.372,66.657 L189.372,64.638 L189.257,64.638 C188.26,65.994 186.986,67.029 185.433,67.746 C183.881,68.462 182.146,68.82 180.229,68.82 C178.159,68.82 176.28,68.436 174.594,67.67 C172.906,66.904 171.478,65.869 170.309,64.565 C169.139,63.262 168.229,61.738 167.578,59.993 C166.926,58.25 166.6,56.4 166.6,54.445 C166.6,52.452 166.917,50.573 167.549,48.809 C168.182,47.046 169.082,45.512 170.252,44.208 C171.421,42.906 172.84,41.87 174.507,41.103 C176.175,40.337 178.044,39.953 180.114,39.953 C182.069,39.953 183.889,40.356 185.577,41.161 C187.263,41.966 188.605,43.212 189.602,44.899 L189.718,44.899 L189.718,40.758 L196.273,40.758 L196.273,40.758 Z M181.552,45.589 C180.286,45.589 179.165,45.819 178.188,46.277 C177.21,46.735 176.385,47.356 175.715,48.139 C175.044,48.923 174.526,49.849 174.162,50.92 C173.798,51.99 173.616,53.136 173.616,54.358 C173.616,55.467 173.798,56.536 174.162,57.568 C174.526,58.599 175.044,59.526 175.715,60.347 C176.385,61.169 177.21,61.828 178.188,62.325 C179.165,62.822 180.267,63.07 181.494,63.07 C182.759,63.07 183.9,62.832 184.916,62.353 C185.931,61.876 186.794,61.236 187.503,60.433 C188.212,59.631 188.759,58.705 189.142,57.654 C189.525,56.603 189.718,55.505 189.718,54.358 C189.718,53.174 189.525,52.046 189.142,50.976 C188.759,49.907 188.212,48.97 187.503,48.168 C186.794,47.366 185.941,46.735 184.945,46.277 C183.947,45.819 182.817,45.589 181.552,45.589 L181.552,45.589 Z" id="Fill-5" fill="#F05322" sketch:type="MSShapeGroup"></path>
                <path d="M203.575,40.758 L210.131,40.758 L210.131,45.186 L210.246,45.186 C210.859,43.806 211.923,42.589 213.438,41.534 C214.952,40.481 216.744,39.953 218.815,39.953 C220.616,39.953 222.159,40.269 223.444,40.902 C224.728,41.534 225.782,42.368 226.607,43.404 C227.43,44.438 228.034,45.627 228.418,46.969 C228.801,48.311 228.993,49.691 228.993,51.109 L228.993,68.36 L222.092,68.36 L222.092,53.064 C222.092,52.259 222.035,51.416 221.92,50.534 C221.805,49.653 221.555,48.857 221.172,48.148 C220.789,47.439 220.261,46.854 219.591,46.394 C218.92,45.934 218.029,45.703 216.917,45.703 C215.804,45.703 214.846,45.925 214.042,46.365 C213.237,46.806 212.575,47.371 212.058,48.061 C211.54,48.751 211.147,49.548 210.879,50.448 C210.61,51.349 210.476,52.259 210.476,53.18 L210.476,68.36 L203.575,68.36 L203.575,40.758" id="Fill-6" fill="#F05322" sketch:type="MSShapeGroup"></path>
                <path d="M253.777,64.852 L253.604,64.852 C252.914,66.08 251.802,67.086 250.269,67.871 C248.735,68.657 246.991,69.051 245.036,69.051 C243.924,69.051 242.764,68.906 241.557,68.619 C240.349,68.332 239.237,67.852 238.221,67.181 C237.205,66.511 236.362,65.629 235.691,64.536 C235.02,63.443 234.685,62.093 234.685,60.482 C234.685,58.412 235.269,56.764 236.439,55.537 C237.608,54.31 239.113,53.371 240.953,52.719 C242.793,52.068 244.835,51.637 247.077,51.426 C249.32,51.215 251.514,51.109 253.662,51.109 L253.662,50.419 C253.662,48.694 253.038,47.42 251.793,46.595 C250.547,45.771 249.061,45.359 247.336,45.359 C245.879,45.359 244.48,45.666 243.138,46.279 C241.796,46.892 240.684,47.64 239.803,48.521 L236.238,44.324 C237.809,42.867 239.62,41.774 241.672,41.046 C243.722,40.318 245.802,39.953 247.911,39.953 C250.364,39.953 252.386,40.298 253.978,40.988 C255.568,41.678 256.824,42.579 257.744,43.691 C258.665,44.804 259.306,46.049 259.671,47.429 C260.035,48.809 260.217,50.189 260.217,51.569 L260.217,68.36 L253.777,68.36 L253.777,64.852 L253.777,64.852 Z M253.662,55.767 L252.109,55.767 C250.997,55.767 249.828,55.816 248.601,55.911 C247.374,56.007 246.243,56.218 245.208,56.543 C244.173,56.87 243.311,57.329 242.621,57.924 C241.93,58.518 241.586,59.332 241.586,60.367 C241.586,61.019 241.729,61.565 242.017,62.006 C242.304,62.447 242.678,62.802 243.138,63.07 C243.598,63.339 244.116,63.53 244.691,63.644 C245.266,63.76 245.841,63.817 246.416,63.817 C248.793,63.817 250.594,63.184 251.822,61.92 C253.048,60.654 253.662,58.93 253.662,56.744 L253.662,55.767 L253.662,55.767 Z" id="Fill-7" fill="#F05322" sketch:type="MSShapeGroup"></path>
                <path d="M267.347,24.887 L274.247,24.887 L274.247,68.361 L267.347,68.361 L267.347,24.887 Z" id="Fill-8" fill="#F05322" sketch:type="MSShapeGroup"></path>
                <path d="M317.894,36.158 C317.126,35.161 316.043,34.327 314.645,33.656 C313.244,32.986 311.835,32.65 310.418,32.65 C309.574,32.65 308.731,32.756 307.888,32.966 C307.044,33.178 306.278,33.504 305.587,33.944 C304.898,34.385 304.331,34.96 303.891,35.669 C303.449,36.379 303.23,37.232 303.23,38.228 C303.23,39.148 303.421,39.934 303.805,40.586 C304.188,41.238 304.715,41.793 305.386,42.253 C306.056,42.713 306.871,43.116 307.83,43.461 C308.788,43.806 309.843,44.151 310.992,44.496 C312.296,44.918 313.647,45.397 315.047,45.934 C316.445,46.471 317.73,47.18 318.9,48.061 C320.069,48.944 321.027,50.055 321.775,51.397 C322.523,52.739 322.897,54.407 322.897,56.4 C322.897,58.585 322.493,60.492 321.689,62.121 C320.884,63.751 319.81,65.102 318.468,66.175 C317.126,67.249 315.555,68.054 313.753,68.591 C311.95,69.127 310.053,69.395 308.06,69.395 C305.415,69.395 302.827,68.906 300.297,67.928 C297.767,66.951 295.697,65.505 294.086,63.588 L299.262,58.757 C300.258,60.137 301.591,61.229 303.258,62.035 C304.926,62.84 306.565,63.242 308.175,63.242 C309.018,63.242 309.88,63.138 310.763,62.926 C311.644,62.716 312.44,62.361 313.15,61.862 C313.859,61.364 314.433,60.741 314.874,59.993 C315.315,59.246 315.535,58.317 315.535,57.205 C315.535,56.132 315.286,55.241 314.788,54.531 C314.289,53.822 313.618,53.208 312.776,52.691 C311.932,52.173 310.936,51.723 309.785,51.339 C308.635,50.956 307.428,50.554 306.162,50.132 C304.935,49.749 303.708,49.289 302.482,48.751 C301.255,48.215 300.154,47.506 299.175,46.624 C298.198,45.743 297.402,44.659 296.789,43.375 C296.175,42.091 295.869,40.491 295.869,38.573 C295.869,36.503 296.3,34.72 297.162,33.225 C298.026,31.73 299.156,30.493 300.556,29.516 C301.954,28.538 303.546,27.81 305.328,27.331 C307.112,26.852 308.923,26.612 310.763,26.612 C312.833,26.612 314.932,26.977 317.06,27.704 C319.188,28.433 321.036,29.526 322.609,30.982 L317.894,36.158" id="Fill-9" fill="#666666" sketch:type="MSShapeGroup"></path>
                <path d="M347.795,48.407 C347.258,47.64 346.453,46.997 345.38,46.48 C344.306,45.962 343.214,45.703 342.102,45.703 C340.837,45.703 339.725,45.962 338.767,46.48 C337.808,46.997 337.013,47.678 336.38,48.521 C335.748,49.365 335.278,50.314 334.972,51.368 C334.664,52.423 334.512,53.487 334.512,54.559 C334.512,55.633 334.674,56.697 335,57.751 C335.325,58.806 335.815,59.754 336.467,60.596 C337.118,61.44 337.933,62.121 338.91,62.638 C339.888,63.156 341.029,63.415 342.332,63.415 C343.405,63.415 344.479,63.205 345.553,62.782 C346.625,62.361 347.487,61.747 348.14,60.942 L352.453,65.312 C351.303,66.54 349.837,67.489 348.054,68.159 C346.272,68.829 344.345,69.165 342.275,69.165 C340.242,69.165 338.316,68.839 336.495,68.187 C334.674,67.536 333.083,66.578 331.723,65.312 C330.362,64.048 329.287,62.514 328.502,60.712 C327.716,58.911 327.323,56.86 327.323,54.559 C327.323,52.337 327.716,50.324 328.502,48.521 C329.287,46.72 330.352,45.186 331.694,43.921 C333.035,42.656 334.598,41.678 336.38,40.988 C338.163,40.298 340.069,39.953 342.102,39.953 C344.134,39.953 346.099,40.337 347.996,41.103 C349.894,41.87 351.399,42.925 352.511,44.266 L347.795,48.407" id="Fill-10" fill="#666666" sketch:type="MSShapeGroup"></path>
                <path d="M357.8,31.385 C357.8,30.273 358.212,29.305 359.036,28.481 C359.861,27.657 360.905,27.245 362.171,27.245 C363.436,27.245 364.5,27.638 365.362,28.423 C366.225,29.21 366.656,30.197 366.656,31.385 C366.656,32.574 366.225,33.561 365.362,34.346 C364.5,35.133 363.436,35.525 362.171,35.525 C360.905,35.525 359.861,35.114 359.036,34.289 C358.212,33.465 357.8,32.497 357.8,31.385 L357.8,31.385 Z M358.778,40.758 L365.678,40.758 L365.678,68.36 L358.778,68.36 L358.778,40.758 Z" id="Fill-11" fill="#666666" sketch:type="MSShapeGroup"></path>
                <path d="M399.894,54.905 L399.894,55.824 C399.894,56.132 399.874,56.438 399.836,56.744 L378.847,56.744 C378.923,57.742 379.182,58.652 379.623,59.475 C380.064,60.301 380.649,61.01 381.377,61.603 C382.105,62.198 382.93,62.667 383.85,63.013 C384.77,63.357 385.728,63.53 386.725,63.53 C388.45,63.53 389.906,63.214 391.096,62.581 C392.283,61.948 393.261,61.077 394.029,59.965 L398.629,63.644 C395.906,67.325 391.958,69.165 386.782,69.165 C384.635,69.165 382.661,68.829 380.86,68.159 C379.057,67.489 377.495,66.54 376.173,65.312 C374.851,64.086 373.816,62.581 373.068,60.799 C372.32,59.016 371.946,56.994 371.946,54.732 C371.946,52.509 372.32,50.487 373.068,48.665 C373.816,46.845 374.841,45.292 376.145,44.007 C377.448,42.724 378.99,41.727 380.774,41.017 C382.556,40.308 384.483,39.953 386.553,39.953 C388.469,39.953 390.242,40.269 391.872,40.902 C393.501,41.534 394.909,42.474 396.099,43.72 C397.286,44.966 398.216,46.518 398.888,48.378 C399.558,50.238 399.894,52.413 399.894,54.905 L399.894,54.905 Z M392.993,51.799 C392.993,50.918 392.868,50.074 392.619,49.269 C392.369,48.464 391.977,47.755 391.441,47.141 C390.904,46.529 390.223,46.04 389.4,45.675 C388.574,45.311 387.607,45.129 386.495,45.129 C384.425,45.129 382.671,45.752 381.234,46.997 C379.796,48.244 379,49.844 378.847,51.799 L392.993,51.799 L392.993,51.799 Z" id="Fill-12" fill="#666666" sketch:type="MSShapeGroup"></path>
                <path d="M405.932,40.758 L412.487,40.758 L412.487,45.186 L412.602,45.186 C413.215,43.806 414.279,42.589 415.794,41.534 C417.308,40.481 419.1,39.953 421.17,39.953 C422.972,39.953 424.515,40.269 425.8,40.902 C427.083,41.534 428.138,42.368 428.962,43.404 C429.786,44.438 430.39,45.627 430.774,46.969 C431.156,48.311 431.349,49.691 431.349,51.109 L431.349,68.36 L424.448,68.36 L424.448,53.064 C424.448,52.259 424.391,51.416 424.276,50.534 C424.16,49.653 423.911,48.857 423.529,48.148 C423.145,47.439 422.617,46.854 421.946,46.394 C421.276,45.934 420.384,45.703 419.273,45.703 C418.16,45.703 417.202,45.925 416.398,46.365 C415.592,46.806 414.931,47.371 414.413,48.061 C413.896,48.751 413.502,49.548 413.235,50.448 C412.966,51.349 412.832,52.259 412.832,53.18 L412.832,68.36 L405.932,68.36 L405.932,40.758" id="Fill-13" fill="#666666" sketch:type="MSShapeGroup"></path>
                <path d="M456.823,48.407 C456.285,47.64 455.481,46.997 454.407,46.48 C453.333,45.962 452.241,45.703 451.129,45.703 C449.865,45.703 448.752,45.962 447.794,46.48 C446.835,46.997 446.04,47.678 445.407,48.521 C444.776,49.365 444.305,50.314 443.999,51.368 C443.692,52.423 443.539,53.487 443.539,54.559 C443.539,55.633 443.701,56.697 444.028,57.751 C444.353,58.806 444.842,59.754 445.494,60.596 C446.146,61.44 446.96,62.121 447.938,62.638 C448.915,63.156 450.056,63.415 451.36,63.415 C452.433,63.415 453.506,63.205 454.58,62.782 C455.653,62.361 456.515,61.747 457.167,60.942 L461.481,65.312 C460.33,66.54 458.865,67.489 457.081,68.159 C455.299,68.829 453.372,69.165 451.302,69.165 C449.27,69.165 447.343,68.839 445.523,68.187 C443.701,67.536 442.111,66.578 440.75,65.312 C439.389,64.048 438.315,62.514 437.529,60.712 C436.743,58.911 436.351,56.86 436.351,54.559 C436.351,52.337 436.743,50.324 437.529,48.521 C438.315,46.72 439.379,45.186 440.721,43.921 C442.063,42.656 443.625,41.678 445.407,40.988 C447.191,40.298 449.097,39.953 451.129,39.953 C453.161,39.953 455.126,40.337 457.024,41.103 C458.921,41.87 460.426,42.925 461.538,44.266 L456.823,48.407" id="Fill-14" fill="#666666" sketch:type="MSShapeGroup"></path>
                <path d="M492.82,54.905 L492.82,55.824 C492.82,56.132 492.801,56.438 492.763,56.744 L471.774,56.744 C471.85,57.742 472.109,58.652 472.55,59.475 C472.99,60.301 473.575,61.01 474.304,61.603 C475.031,62.198 475.857,62.667 476.777,63.013 C477.696,63.357 478.654,63.53 479.652,63.53 C481.377,63.53 482.833,63.214 484.023,62.581 C485.21,61.948 486.188,61.077 486.955,59.965 L491.556,63.644 C488.833,67.325 484.885,69.165 479.709,69.165 C477.562,69.165 475.588,68.829 473.786,68.159 C471.984,67.489 470.422,66.54 469.1,65.312 C467.778,64.086 466.742,62.581 465.994,60.799 C465.247,59.016 464.873,56.994 464.873,54.732 C464.873,52.509 465.247,50.487 465.994,48.665 C466.742,46.845 467.768,45.292 469.071,44.007 C470.374,42.724 471.917,41.727 473.7,41.017 C475.483,40.308 477.409,39.953 479.48,39.953 C481.396,39.953 483.169,40.269 484.799,40.902 C486.428,41.534 487.836,42.474 489.026,43.72 C490.213,44.966 491.143,46.518 491.815,48.378 C492.485,50.238 492.82,52.413 492.82,54.905 L492.82,54.905 Z M485.92,51.799 C485.92,50.918 485.795,50.074 485.546,49.269 C485.296,48.464 484.904,47.755 484.367,47.141 C483.83,46.529 483.15,46.04 482.326,45.675 C481.501,45.311 480.533,45.129 479.422,45.129 C477.352,45.129 475.598,45.752 474.16,46.997 C472.723,48.244 471.927,49.844 471.774,51.799 L485.92,51.799 L485.92,51.799 Z" id="Fill-15" fill="#666666" sketch:type="MSShapeGroup"></path>
                <path d="M515.477,48.119 C514.863,47.314 514.019,46.615 512.947,46.02 C511.872,45.426 510.703,45.129 509.439,45.129 C508.326,45.129 507.311,45.359 506.391,45.819 C505.471,46.279 505.01,47.046 505.01,48.119 C505.01,49.193 505.518,49.95 506.534,50.391 C507.55,50.831 509.035,51.282 510.991,51.741 C512.026,51.971 513.07,52.279 514.125,52.662 C515.179,53.045 516.138,53.553 517,54.186 C517.863,54.818 518.562,55.604 519.099,56.543 C519.636,57.483 519.905,58.623 519.905,59.965 C519.905,61.652 519.588,63.08 518.955,64.249 C518.323,65.419 517.479,66.367 516.425,67.095 C515.37,67.824 514.144,68.351 512.745,68.677 C511.345,69.002 509.899,69.165 508.404,69.165 C506.256,69.165 504.166,68.771 502.135,67.986 C500.103,67.201 498.416,66.08 497.074,64.622 L501.617,60.367 C502.384,61.364 503.38,62.188 504.608,62.84 C505.834,63.492 507.196,63.817 508.691,63.817 C509.189,63.817 509.698,63.76 510.215,63.644 C510.733,63.53 511.211,63.349 511.653,63.098 C512.093,62.849 512.448,62.514 512.716,62.093 C512.984,61.671 513.118,61.153 513.118,60.54 C513.118,59.389 512.591,58.566 511.537,58.067 C510.483,57.57 508.901,57.071 506.793,56.572 C505.758,56.342 504.751,56.046 503.774,55.681 C502.796,55.317 501.924,54.838 501.157,54.243 C500.39,53.649 499.778,52.912 499.318,52.029 C498.858,51.148 498.627,50.055 498.627,48.751 C498.627,47.219 498.944,45.896 499.576,44.783 C500.209,43.672 501.042,42.762 502.077,42.052 C503.112,41.343 504.281,40.816 505.585,40.47 C506.888,40.126 508.231,39.953 509.611,39.953 C511.604,39.953 513.55,40.298 515.448,40.988 C517.345,41.678 518.85,42.733 519.962,44.151 L515.477,48.119" id="Fill-16" fill="#666666" sketch:type="MSShapeGroup"></path>
            </g>
        </g>
    </g>
</svg>